<?xml version="1.0" encoding="iso-8859-1"?>
<!-- Generator: Adobe Illustrator 19.0.0, SVG Export Plug-In . SVG Version: 6.00 Build 0)  -->
<svg version="1.1" id="Layer_1" xmlns="http://www.w3.org/2000/svg" xmlns:xlink="http://www.w3.org/1999/xlink" x="0px" y="0px"
	 viewBox="0 0 512 512" style="enable-background:new 0 0 512 512;" xml:space="preserve">
<path style="fill:#84D88B;" d="M471.579,158.989h-53.895V83.537h53.895c5.953,0,10.779,4.826,10.779,10.779v53.895
	C482.358,154.164,477.532,158.989,471.579,158.989z"/>
<path style="fill:#FF8355;" d="M493.137,105.095h-64.674V29.642h64.674c5.953,0,10.779,4.826,10.779,10.779v53.895
	C503.916,100.269,499.09,105.095,493.137,105.095z"/>
<path style="fill:#B28D5B;" d="M417.684,503.916H29.642c-11.906,0-21.558-9.651-21.558-21.558V29.642
	c0-11.906,9.651-21.558,21.558-21.558h388.042c11.906,0,21.558,9.651,21.558,21.558v452.716
	C439.242,494.264,429.591,503.916,417.684,503.916z"/>
<path style="fill:#99774F;" d="M29.642,8.084h43.116v495.832H29.642c-11.906,0-21.558-9.651-21.558-21.558V29.642
	C8.084,17.736,17.736,8.084,29.642,8.084z M460.8,191.326H320.674C284.955,191.326,256,220.282,256,256l0,0
	c0,35.718,28.955,64.674,64.674,64.674H460.8c11.906,0,21.558-9.651,21.558-21.558v-86.232
	C482.358,200.978,472.706,191.326,460.8,191.326z"/>
<path style="fill:#F4C064;" d="M353.01,256c0,14.882-12.065,26.947-26.947,26.947S299.116,270.882,299.116,256
	s12.065-26.947,26.947-26.947S353.01,241.117,353.01,256z"/>
<path d="M72.758,32.337c4.465,0,8.084,3.618,8.084,8.084v431.158c0,4.466-3.62,8.084-8.084,8.084s-8.084-3.618-8.084-8.084V40.421
	C64.674,35.955,68.293,32.337,72.758,32.337z M512,40.421v53.895c0,10.401-8.463,18.863-18.863,18.863h-2.695v35.032
	c0,10.401-8.463,18.863-18.863,18.863h-24.253v16.168H460.8c16.344,0,29.642,13.298,29.642,29.642v86.232
	c0,16.344-13.298,29.642-29.642,29.642H320.674c-40.119,0-72.758-32.639-72.758-72.758s32.639-72.758,72.758-72.758h110.484v-153.6
	c0-7.43-6.044-13.474-13.474-13.474H29.642c-7.43,0-13.474,6.044-13.474,13.474v452.716c0,7.43,6.044,13.474,13.474,13.474h388.042
	c7.43,0,13.474-6.044,13.474-13.474V353.01c0-4.466,3.618-8.084,8.084-8.084c4.466,0,8.084,3.618,8.084,8.084v129.347
	c0,16.344-13.298,29.642-29.642,29.642H29.642C13.297,512,0,498.702,0,482.358V29.642C0,13.298,13.297,0,29.642,0h388.042
	c13.543,0,24.994,9.13,28.522,21.558h46.93C503.537,21.558,512,30.02,512,40.421z M320.674,199.411
	c-31.203,0-56.589,25.387-56.589,56.589s25.387,56.589,56.589,56.589H460.8c7.43,0,13.474-6.044,13.474-13.474v-86.232
	c0-7.43-6.044-13.474-13.474-13.474H320.674z M474.274,113.179h-26.947v37.726h24.253c1.486,0,2.695-1.208,2.695-2.695V113.179z
	 M495.832,40.421c0-1.486-1.208-2.695-2.695-2.695h-45.811v59.284h45.811c1.486,0,2.695-1.208,2.695-2.695V40.421z M326.063,220.968
	c19.317,0,35.032,15.715,35.032,35.032s-15.715,35.032-35.032,35.032c-19.317,0-35.032-15.715-35.032-35.032
	S306.746,220.968,326.063,220.968z M307.2,256c0,10.401,8.463,18.863,18.863,18.863s18.863-8.463,18.863-18.863
	c0-10.401-8.463-18.863-18.863-18.863S307.2,245.599,307.2,256z"/>
<g>
</g>
<g>
</g>
<g>
</g>
<g>
</g>
<g>
</g>
<g>
</g>
<g>
</g>
<g>
</g>
<g>
</g>
<g>
</g>
<g>
</g>
<g>
</g>
<g>
</g>
<g>
</g>
<g>
</g>
</svg>
