<?xml version="1.0" encoding="UTF-8" standalone="no"?>
<svg xmlns="http://www.w3.org/2000/svg" version="1.1">
  <g style="fill:#007a33;stroke:#007a33;stroke-width:0">
    <path d="M 394,712.36218 C 395.24981,859.72047 328.23304,975.75412 200,1048.3622 71.760454,975.76498 4.757436,859.7303 6,712.36218 c 126.99073,-74.76015 260.99564,-74.76137 388,0 z" transform="translate(0,-652.36218)" />
    <path d="m 353.55339,172.31161 a 153.44217,153.44217 0 1 1 -306.884338,0 153.44217,153.44217 0 1 1 306.884338,0 z" transform="matrix(1.065548,0,0,1.065548,-13.228115,-12.10629)" style="fill:#ffffff" />
    <path d="m 353.55339,172.31161 a 153.44217,153.44217 0 1 1 -306.884338,0 153.44217,153.44217 0 1 1 306.884338,0 z" transform="matrix(0.74620947,0,0,0.74620947,50.675111,42.919441)" style="fill:none;stroke-width:6.7" />
    <path d="m 116,143.5 56,0 0,-56 56,0 0,56 56,0 1,56 -57,0 0,56 -56,0 0,-56 -56,0 z" />
  </g>
  <g transform="translate(-0.5,-652.7)" style="fill:#da291c">
    <path d="m 75.399559,801.46834 -23.559295,-6.10677 1.233016,-4.75685 9.272656,2.40355 2.416046,-9.32087 -9.272656,-2.40355 1.233017,-4.75686 23.559294,6.10677 -1.233016,4.75685 -10.301165,-2.67014 -2.416046,9.32086 10.301165,2.67015 z" />
    <path d="m 63.184038,760.89207 1.990429,-4.47474 14.076477,6.26141 c 1.840459,0.81868 3.184225,1.61022 4.031302,2.37462 1.100965,1.01061 1.789159,2.26156 2.064585,3.75286 0.275417,1.49132 -0.0029,3.17237 -0.835103,5.04315 -0.9761,2.1944 -2.341617,3.60991 -4.096557,4.24654 -1.754939,0.63663 -3.822864,0.43146 -6.203783,-0.61549 l 1.397077,-4.44796 c 1.296659,0.51622 2.279878,0.72947 2.949661,0.63977 1.014793,-0.13003 1.742597,-0.69056 2.183414,-1.68159 0.445316,-1.00112 0.474511,-1.83606 0.08758,-2.50482 -0.386927,-0.66874 -1.480394,-1.40346 -3.280405,-2.20414 z" />
    <path d="m 100.69188,744.89238 -2.905999,4.48684 -5.795295,-1.22168 -5.288551,8.16549 3.548113,4.69131 -2.833797,4.37537 -15.274485,-21.18688 2.824772,-4.36143 z m -13.000422,2.35978 -9.403267,-2.09478 5.793335,7.66849 z m -16.892338,-3.60252 -2.920925,-4.62135 2.842822,-4.3893 1.684523,6.53035 z" />
    <path d="m 102.72736,742.92334 -17.611667,-16.50772 3.360581,-3.58532 14.619856,13.70345 8.35604,-8.91484 2.99181,2.80427 z" />
    <path d="m 115.6155,729.4007 -14.97397,-19.18628 6.21656,-4.85173 c 2.35576,-1.83852 3.96626,-2.94101 4.83151,-3.30746 1.32406,-0.57004 2.73313,-0.66241 4.2272,-0.27713 1.49406,0.38533 2.83692,1.34143 4.02858,2.86827 0.91927,1.1779 1.47838,2.33502 1.67733,3.47136 0.19894,1.13638 0.14779,2.19065 -0.15345,3.16281 -0.30124,0.97219 -0.73426,1.79801 -1.29904,2.47745 -0.78186,0.90505 -2.04965,2.04191 -3.80337,3.41059 l -2.52588,1.97134 5.64843,7.23738 z m -8.56696,-18.96397 4.2491,5.4444 2.12017,-1.6547 c 1.52688,-1.19163 2.46939,-2.08867 2.82755,-2.69113 0.35816,-0.60241 0.51655,-1.23144 0.47517,-1.88711 -0.0414,-0.65562 -0.28337,-1.267 -0.72598,-1.83415 -0.54476,-0.69797 -1.19922,-1.1138 -1.96338,-1.24748 -0.76417,-0.13363 -1.50461,-0.012 -2.22134,0.3648 -0.53051,0.27367 -1.49377,0.95525 -2.88977,2.04474 z" />
    <path d="m 147.74067,708.01212 -4.62928,2.67326 -4.6048,-3.72476 -8.42471,4.86499 1.02501,5.79197 -4.51427,2.60685 -3.96173,-25.81663 4.49989,-2.59854 z m -12.65046,-3.81384 -7.4204,-6.14388 1.66974,9.4647 z" />
    <path d="m 149.37635,707.49792 -8.04228,-22.97073 9.76178,-3.4177 c 2.4548,-0.85942 4.31068,-1.27759 5.56765,-1.2545 1.25695,0.0231 2.40439,0.4452 3.44232,1.26616 1.03792,0.821 1.7946,1.91048 2.27005,3.26844 0.60343,1.72361 0.5951,3.32425 -0.025,4.80192 -0.62012,1.47772 -1.88701,2.71573 -3.80067,3.71405 1.20761,0.2339 2.26037,0.58649 3.1583,1.05778 0.89789,0.47132 2.21318,1.40626 3.94586,2.80485 l 4.3737,3.49936 -5.54682,1.942 -5.10315,-3.82444 c -1.81624,-1.36932 -3.0251,-2.20961 -3.62657,-2.52087 -0.60149,-0.31123 -1.17788,-0.46708 -1.72918,-0.46756 -0.55131,-4.6e-4 -1.35971,0.18583 -2.42519,0.55885 l -0.94014,0.32915 3.35735,9.58942 z m -0.003,-14.87978 3.4315,-1.2014 c 2.22499,-0.77898 3.58139,-1.35941 4.06921,-1.74129 0.4878,-0.38184 0.80793,-0.85744 0.9604,-1.4268 0.15245,-0.56932 0.10799,-1.19871 -0.13337,-1.88816 -0.27065,-0.77298 -0.69548,-1.3249 -1.27449,-1.65576 -0.57903,-0.3308 -1.26654,-0.42723 -2.06253,-0.28929 -0.39435,0.0795 -1.53166,0.44832 -3.41193,1.1066 l -3.61954,1.26724 z" />
    <path d="m 169.30566,692.50022 4.64973,-1.20684 c 0.53518,1.54008 1.29615,2.61299 2.28291,3.21873 0.98674,0.60575 2.218,0.79179 3.69376,0.55812 1.5632,-0.2475 2.68871,-0.76467 3.37655,-1.55152 0.68781,-0.78684 0.96162,-1.62298 0.82144,-2.50845 -0.09,-0.56843 -0.33331,-1.02575 -0.72989,-1.37197 -0.3966,-0.3462 -1.03365,-0.60111 -1.91117,-0.76473 -0.59961,-0.10676 -1.95038,-0.25146 -4.05232,-0.43412 -2.70383,-0.23302 -4.65488,-0.73651 -5.85315,-1.51047 -1.68519,-1.08904 -2.67836,-2.58461 -2.97952,-4.48672 -0.19385,-1.22431 -0.0281,-2.42434 0.49732,-3.60009 0.52539,-1.17571 1.39712,-2.14574 2.61516,-2.91011 1.21805,-0.76431 2.75078,-1.29274 4.59822,-1.58527 3.01709,-0.47768 5.39283,-0.1759 7.12722,0.90534 1.73436,1.08129 2.81462,2.71995 3.24079,4.91598 l -4.81986,0.98165 c -0.40329,-1.20236 -0.98938,-2.02002 -1.75826,-2.45297 -0.76891,-0.43291 -1.83658,-0.54121 -3.20301,-0.32488 -1.41017,0.2233 -2.46839,0.6878 -3.17465,1.3935 -0.45494,0.45304 -0.63308,0.9911 -0.53442,1.61418 0.09,0.56845 0.40751,1.01683 0.95254,1.34512 0.69351,0.41688 2.26501,0.71713 4.7145,0.90076 2.44947,0.18367 4.28708,0.48381 5.51284,0.90042 1.22573,0.41665 2.24013,1.09085 3.0432,2.02261 0.80304,0.93179 1.32486,2.15742 1.56546,3.67689 0.21807,1.37739 0.0397,2.72788 -0.5351,4.0515 -0.57484,1.32363 -1.51556,2.38864 -2.82218,3.19501 -1.30665,0.80639 -3.00393,1.37487 -5.09184,1.70546 -3.03898,0.48117 -5.48406,0.14834 -7.33527,-0.99847 -1.85121,-1.1468 -3.14821,-3.03969 -3.891,-5.67866 z" />
    <path d="m 198.50305,697.16334 -8.57094,-24.38337 5.32903,0.0281 6.06424,18.04487 6.05473,-17.98106 5.21282,0.0275 -8.84386,24.29166 z" />
    <path d="m 213.52928,697.52358 4.15765,-23.98013 17.78063,3.08278 -0.70334,4.05667 -12.93881,-2.24332 -0.92171,5.3162 12.03914,2.08733 -0.7005,4.04031 -12.03914,-2.08733 -1.13159,6.52665 13.39682,2.32273 -0.7005,4.04031 z" />
    <path d="m 235.61271,702.08107 7.17493,-23.25626 4.69567,1.4487 -7.17493,23.25625 z" />
    <path d="m 249.80224,707.10154 8.23254,-18.46894 -6.59605,-2.9402 1.67625,-3.76051 17.66529,7.87431 -1.67625,3.76051 -6.58089,-2.93343 -8.23254,18.46895 z" />
    <path d="m 275.58623,711.67319 4.04798,2.58655 c -0.76455,1.44005 -1.03311,2.72771 -0.80568,3.863 0.22741,1.13529 0.92877,2.16421 2.10409,3.08678 1.24493,0.97723 2.38972,1.45022 3.43436,1.41896 1.04461,-0.0313 1.84369,-0.39948 2.39724,-1.10466 0.35534,-0.45271 0.52497,-0.94216 0.50889,-1.46836 -0.0161,-0.5262 -0.26273,-1.16651 -0.73985,-1.92094 -0.32972,-0.51206 -1.14269,-1.60046 -2.43892,-3.26518 -1.66883,-2.14009 -2.62727,-3.91252 -2.87532,-5.31728 -0.34842,-1.97597 0.0719,-3.72137 1.261,-5.23622 0.76538,-0.97505 1.75763,-1.67002 2.97677,-2.08492 1.2191,-0.41487 2.5231,-0.43599 3.91201,-0.0634 1.38886,0.37265 2.81895,1.13642 4.29028,2.29132 2.40281,1.88614 3.79802,3.83257 4.18564,5.8393 0.38756,2.00674 -0.0784,3.91332 -1.39785,5.71975 l -3.9987,-2.86444 c 0.60679,-1.11361 0.80727,-2.09944 0.60144,-2.9575 -0.20587,-0.85805 -0.85291,-1.71419 -1.94113,-2.56843 -1.12309,-0.88155 -2.18348,-1.34105 -3.18119,-1.37852 -0.64154,-0.0252 -1.15707,0.21035 -1.54658,0.70658 -0.35538,0.45272 -0.46795,0.99048 -0.33772,1.61327 0.16633,0.79188 1.01548,2.14787 2.54745,4.06797 1.53194,1.9201 2.56223,3.47104 3.09087,4.65281 0.5286,1.18177 0.72467,2.3839 0.58819,3.60639 -0.13652,1.22248 -0.67971,2.43879 -1.62959,3.64892 -0.86108,1.09694 -1.97217,1.88506 -3.33329,2.36435 -1.36115,0.47928 -2.7817,0.51445 -4.26165,0.1055 -1.47998,-0.40897 -3.05138,-1.26608 -4.71421,-2.57133 -2.42025,-1.8998 -3.8399,-3.91817 -4.25893,-6.05511 -0.41905,-2.13695 0.0858,-4.37534 1.5144,-6.71519 z" />
    <path d="m 287.93293,731.6696 18.04798,-16.328 3.29678,3.64406 -8.01448,7.25071 14.67488,0.11129 4.43284,4.89979 -13.17766,-0.43601 -4.53618,17.13334 -4.26577,-4.71512 3.98146,-12.62415 -5.68927,-0.22589 -5.45379,4.93404 z" />
    <path d="m 315.79048,769.89361 -2.72162,-4.60101 3.67631,-4.64357 -4.95302,-8.37328 -5.78091,1.08565 -2.654,-4.48671 25.7737,-4.23204 2.64555,4.47241 z m 3.68107,-12.68973 6.06579,-7.48437 -9.44668,1.76883 z m 10.75299,-13.51674 5.43878,-0.55536 2.66246,4.50099 -6.59674,-1.40222 z" />
    <path d="m 316.58391,772.98858 18.67024,-7.76524 -2.7733,-6.66794 3.80149,-1.5811 7.42735,17.85782 -3.8015,1.5811 -2.76692,-6.65261 -18.67024,7.76524 z" />
    <path d="m 326.1878,803.73425 -1.34132,-5.17469 4.81827,-3.44416 -2.44104,-9.41729 -5.8555,-0.55738 -1.308,-5.04613 25.93785,3.06947 1.30383,5.03006 z m 7.05062,-11.17445 7.90088,-5.51231 -9.56712,-0.91587 z" />
    <path d="m 116.18777,952.05792 12.07362,-21.13198 4.26675,2.43778 -5.36147,9.38399 13.98148,-4.459 5.73706,3.27783 -12.65955,3.68467 1.01837,17.69438 -5.52084,-3.15429 -0.14293,-13.23634 -5.47729,1.55502 -3.64845,6.38573 z" />
    <path d="m 140.86442,952.31073 c 0.85421,-2.32735 1.91921,-4.15291 3.19499,-5.4767 0.9466,-0.97299 2.03897,-1.75691 3.27711,-2.35177 1.23812,-0.59482 2.47426,-0.91924 3.70842,-0.97324 1.64459,-0.0802 3.39679,0.22107 5.25662,0.90366 3.36633,1.23558 5.67667,3.26841 6.93104,6.0985 1.25432,2.83011 1.19888,6.10497 -0.16631,9.82457 -1.35381,3.68845 -3.41563,6.20626 -6.18547,7.55346 -2.76989,1.34718 -5.8328,1.4049 -9.18874,0.17316 -3.39754,-1.24701 -5.71853,-3.27491 -6.96301,-6.08371 -1.24448,-2.80879 -1.19936,-6.03143 0.13535,-9.66793 z m 4.81062,1.58881 c -0.94956,2.58711 -1.07193,4.76749 -0.3671,6.54114 0.7048,1.77367 1.97672,2.99799 3.81576,3.67297 1.83901,0.67498 3.59126,0.56653 5.25676,-0.32536 1.66546,-0.8919 2.98441,-2.66256 3.95687,-5.31201 0.96097,-2.61827 1.10385,-4.78228 0.42866,-6.49203 -0.67525,-1.70973 -1.96354,-2.91354 -3.86489,-3.61142 -1.90138,-0.69784 -3.6732,-0.60836 -5.31545,0.26846 -1.64228,0.87685 -2.94581,2.62959 -3.91061,5.25825 z m 8.18574,-11.46146 3.86107,-3.87052 4.90926,1.80186 -5.9962,3.08685 z" />
    <path d="m 163.63995,972.7709 4.44468,-23.9286 7.75313,1.44013 c 2.93801,0.54575 4.83093,1.02118 5.67877,1.4263 1.30436,0.61378 2.30734,1.60777 3.00895,2.98197 0.70157,1.37424 0.8755,3.01349 0.52181,4.91775 -0.27289,1.46902 -0.76889,2.65456 -1.48802,3.55662 -0.71917,0.90207 -1.54259,1.56244 -2.47024,1.98111 -0.92769,0.41869 -1.83309,0.6417 -2.7162,0.66902 -1.1959,0.0143 -2.88745,-0.18173 -5.07463,-0.588 l -3.15022,-0.58515 -1.67661,9.02627 z m 8.5242,-18.98323 -1.26124,6.79011 2.64422,0.49116 c 1.90427,0.35372 3.20065,0.46507 3.88917,0.33404 0.68848,-0.13102 1.26452,-0.42927 1.72811,-0.89477 0.46356,-0.46547 0.76103,-1.05187 0.89243,-1.75918 0.16168,-0.87052 0.0394,-1.6362 -0.36695,-2.29705 -0.40635,-0.66083 -0.98811,-1.13474 -1.74529,-1.42175 -0.55653,-0.21592 -1.70531,-0.48559 -3.44635,-0.809 z" />
    <path d="m 205.98197,977.34911 -5.3408,-0.22889 -1.88634,-5.61424 -9.7196,-0.41655 -2.24365,5.43724 -5.20811,-0.2232 10.51289,-23.90968 5.19152,0.22249 z m -8.62727,-10.00748 -2.96374,-9.16656 -3.67079,8.88222 z" />
    <path d="m 213.31104,976.46627 -11.08843,-23.34644 5.30242,-0.53269 7.92885,17.30682 4.12959,-18.51823 5.18678,-0.52107 -6.23939,25.08722 z" />
    <path d="m 226.5835,963.04723 c -0.6556,-2.3909 -0.84826,-4.49561 -0.57799,-6.31412 0.20588,-1.34178 0.64022,-2.61423 1.30302,-3.81738 0.66279,-1.20311 1.48096,-2.18488 2.4545,-2.94533 1.29254,-1.02002 2.89411,-1.79199 4.80471,-2.31591 3.45827,-0.94824 6.51957,-0.6343 9.1839,0.94183 2.6643,1.57618 4.52035,4.27485 5.56816,8.09602 1.03898,3.78918 0.82188,7.03624 -0.65131,9.74117 -1.47322,2.70496 -3.93363,4.5301 -7.38122,5.47545 -3.49032,0.95705 -6.55742,0.65331 -9.20134,-0.91123 -2.64392,-1.56453 -4.47806,-4.2147 -5.50243,-7.9505 z m 4.83932,-1.49911 c 0.72876,2.65776 1.89493,4.50414 3.4985,5.53912 1.60356,1.035 3.34997,1.29348 5.23923,0.77543 1.88923,-0.51803 3.253,-1.62359 4.09132,-3.31669 0.83829,-1.69307 0.88427,-3.90051 0.13796,-6.62233 -0.73756,-2.68975 -1.87752,-4.5347 -3.41987,-5.53486 -1.54237,-1.0001 -3.2902,-1.23237 -5.24348,-0.69679 -1.95329,0.53562 -3.34401,1.63709 -4.17215,3.30442 -0.82815,1.66737 -0.87199,3.85127 -0.13151,6.5517 z" />
    <path d="m 263.80977,953.41703 -1.78815,-3.69017 9.53169,-4.61878 4.22785,8.72492 c -0.49193,1.34526 -1.45155,2.78493 -2.87886,4.31902 -1.42735,1.53411 -3.04239,2.73794 -4.84513,3.6115 -2.2908,1.11006 -4.52064,1.59716 -6.68952,1.46132 -2.1689,-0.13583 -4.11479,-0.89012 -5.83766,-2.26288 -1.72288,-1.37274 -3.0935,-3.10989 -4.11185,-5.21145 -1.10522,-2.28082 -1.6093,-4.53933 -1.51223,-6.77555 0.0971,-2.23618 0.83766,-4.27381 2.22175,-6.11289 1.05203,-1.40756 2.62384,-2.61812 4.71544,-3.63167 2.71906,-1.31756 5.11933,-1.77656 7.2008,-1.37701 2.08146,0.3996 3.82877,1.49917 5.24193,3.29869 l -3.99417,2.9501 c -0.83001,-0.92603 -1.82162,-1.49399 -2.97483,-1.70386 -1.15323,-0.20982 -2.36728,-0.006 -3.64215,0.61188 -1.93223,0.93633 -3.17174,2.29333 -3.71852,4.07099 -0.54677,1.77771 -0.23618,3.87171 0.93179,6.282 1.25966,2.59956 2.78209,4.2693 4.56728,5.00921 1.78519,0.73993 3.61402,0.65622 5.4865,-0.25114 0.92626,-0.44883 1.76695,-1.08066 2.52206,-1.89546 0.75508,-0.81479 1.3408,-1.64283 1.75716,-2.48412 l -1.34654,-2.77883 z" />
    <path d="m 280.81368,954.26266 -13.10431,-20.50877 4.14092,-2.64589 13.10432,20.50877 z" />
  </g>
</svg>
